<?xml version="1.0"?>
<!DOCTYPE svg PUBLIC "-//W3C//DTD SVG 1.1//EN" "http://www.w3.org/Graphics/SVG/1.1/DTD/svg11.dtd">
<svg xmlns="http://www.w3.org/2000/svg" xmlns:xl="http://www.w3.org/1999/xlink" version="1.1" viewBox="13 12 529 171" width="529pt" height="171pt"><metadata xmlns:dc="http://purl.org/dc/elements/1.1/"><dc:date>2015-03-25 16:07Z</dc:date><!-- Produced by OmniGraffle Professional 5.4.4 --></metadata><defs><filter id="Shadow" filterUnits="userSpaceOnUse"><feGaussianBlur in="SourceAlpha" result="blur" stdDeviation="3.488"/><feOffset in="blur" result="offset" dx="0" dy="4"/><feFlood flood-color="black" flood-opacity=".75" result="flood"/><feComposite in="flood" in2="offset" operator="in"/></filter><filter id="Shadow_2" filterUnits="userSpaceOnUse"><feGaussianBlur in="SourceAlpha" result="blur" stdDeviation="3.488"/><feOffset in="blur" result="offset" dx="0" dy="2"/><feFlood flood-color="black" flood-opacity=".4" result="flood"/><feComposite in="flood" in2="offset" operator="in"/></filter><linearGradient x1="0" x2="1" id="Gradient" gradientUnits="userSpaceOnUse"><stop offset="0" stop-color="#666"/><stop offset=".45238096" stop-color="#8c8c8c"/><stop offset="1" stop-color="black"/></linearGradient><linearGradient id="Obj_Gradient" xl:href="#Gradient" gradientTransform="translate(230 58.5) rotate(90) scale(40)"/></defs><g stroke="none" stroke-opacity="1" stroke-dasharray="none" fill="none" fill-opacity="1"><title>Blank Page</title><g><title>Layer 1</title><g><use xl:href="#id4_Graphic" filter="url(#Shadow)"/><use xl:href="#id6_Graphic" filter="url(#Shadow)"/><use xl:href="#id7_Graphic" filter="url(#Shadow)"/><use xl:href="#id8_Graphic" filter="url(#Shadow)"/><use xl:href="#id9_Graphic" filter="url(#Shadow)"/><use xl:href="#id10_Graphic" filter="url(#Shadow)"/><use xl:href="#id11_Graphic" filter="url(#Shadow)"/><use xl:href="#id12_Graphic" filter="url(#Shadow)"/><use xl:href="#id13_Graphic" filter="url(#Shadow)"/><use xl:href="#id14_Graphic" filter="url(#Shadow)"/><use xl:href="#id31_Graphic" filter="url(#Shadow)"/><use xl:href="#id32_Graphic" filter="url(#Shadow)"/><use xl:href="#id33_Graphic" filter="url(#Shadow)"/><use xl:href="#id34_Graphic" filter="url(#Shadow)"/><use xl:href="#id35_Graphic" filter="url(#Shadow)"/><use xl:href="#id36_Graphic" filter="url(#Shadow)"/><use xl:href="#id37_Graphic" filter="url(#Shadow)"/><use xl:href="#id38_Graphic" filter="url(#Shadow)"/><use xl:href="#id39_Graphic" filter="url(#Shadow)"/><use xl:href="#id40_Graphic" filter="url(#Shadow)"/><use xl:href="#id41_Graphic" filter="url(#Shadow)"/><use xl:href="#id60_Graphic" filter="url(#Shadow_2)"/></g><g id="id4_Graphic"><path d="M 80.5 84 L 86.5 84 C 92.29899 84 97 88.70101 97 94.5 L 97 94.5 C 97 100.29899 92.29899 105 86.5 105 L 80.5 105 C 74.70101 105 70 100.29899 70 94.5 L 70 94.5 C 70 88.70101 74.70101 84 80.5 84 Z" fill="white"/><path d="M 80.5 84 L 86.5 84 C 92.29899 84 97 88.70101 97 94.5 L 97 94.5 C 97 100.29899 92.29899 105 86.5 105 L 80.5 105 C 74.70101 105 70 100.29899 70 94.5 L 70 94.5 C 70 88.70101 74.70101 84 80.5 84 Z" stroke="black" stroke-linecap="round" stroke-linejoin="round" stroke-width="1"/></g><g id="id6_Graphic"><path d="M 34.5 77.5 L 40.5 77.5 C 46.29899 77.5 51 82.20101 51 88 L 51 88 C 51 93.79899 46.29899 98.5 40.5 98.5 L 34.5 98.5 C 28.70101 98.5 24 93.79899 24 88 L 24 88 C 24 82.20101 28.70101 77.5 34.5 77.5 Z" fill="white"/><path d="M 34.5 77.5 L 40.5 77.5 C 46.29899 77.5 51 82.20101 51 88 L 51 88 C 51 93.79899 46.29899 98.5 40.5 98.5 L 34.5 98.5 C 28.70101 98.5 24 93.79899 24 88 L 24 88 C 24 82.20101 28.70101 77.5 34.5 77.5 Z" stroke="black" stroke-linecap="round" stroke-linejoin="round" stroke-width="1"/></g><g id="id7_Graphic"><path d="M 51.5 120 L 57.5 120 C 63.29899 120 68 124.70101 68 130.5 L 68 130.5 C 68 136.29899 63.29899 141 57.5 141 L 51.5 141 C 45.70101 141 41 136.29899 41 130.5 L 41 130.5 C 41 124.70101 45.70101 120 51.5 120 Z" fill="white"/><path d="M 51.5 120 L 57.5 120 C 63.29899 120 68 124.70101 68 130.5 L 68 130.5 C 68 136.29899 63.29899 141 57.5 141 L 51.5 141 C 45.70101 141 41 136.29899 41 130.5 L 41 130.5 C 41 124.70101 45.70101 120 51.5 120 Z" stroke="black" stroke-linecap="round" stroke-linejoin="round" stroke-width="1"/></g><g id="id8_Graphic"><path d="M 107.5 111 L 113.5 111 C 119.29899 111 124 115.70101 124 121.5 L 124 121.5 C 124 127.29899 119.29899 132 113.5 132 L 107.5 132 C 101.70101 132 97 127.29899 97 121.5 L 97 121.5 C 97 115.70101 101.70101 111 107.5 111 Z" fill="white"/><path d="M 107.5 111 L 113.5 111 C 119.29899 111 124 115.70101 124 121.5 L 124 121.5 C 124 127.29899 119.29899 132 113.5 132 L 107.5 132 C 101.70101 132 97 127.29899 97 121.5 L 97 121.5 C 97 115.70101 101.70101 111 107.5 111 Z" stroke="black" stroke-linecap="round" stroke-linejoin="round" stroke-width="1"/></g><g id="id9_Graphic"><path d="M 169.5 101 L 175.5 101 C 181.29899 101 186 105.70101 186 111.5 L 186 111.5 C 186 117.29899 181.29899 122 175.5 122 L 169.5 122 C 163.70101 122 159 117.29899 159 111.5 L 159 111.5 C 159 105.70101 163.70101 101 169.5 101 Z" fill="white"/><path d="M 169.5 101 L 175.5 101 C 181.29899 101 186 105.70101 186 111.5 L 186 111.5 C 186 117.29899 181.29899 122 175.5 122 L 169.5 122 C 163.70101 122 159 117.29899 159 111.5 L 159 111.5 C 159 105.70101 163.70101 101 169.5 101 Z" stroke="black" stroke-linecap="round" stroke-linejoin="round" stroke-width="1"/></g><g id="id10_Graphic"><path d="M 139.5 19 L 145.5 19 C 151.29899 19 156 23.70101 156 29.5 L 156 29.5 C 156 35.29899 151.29899 40 145.5 40 L 139.5 40 C 133.70101 40 129 35.29899 129 29.5 L 129 29.5 C 129 23.70101 133.70101 19 139.5 19 Z" fill="white"/><path d="M 139.5 19 L 145.5 19 C 151.29899 19 156 23.70101 156 29.5 L 156 29.5 C 156 35.29899 151.29899 40 145.5 40 L 139.5 40 C 133.70101 40 129 35.29899 129 29.5 L 129 29.5 C 129 23.70101 133.70101 19 139.5 19 Z" stroke="black" stroke-linecap="round" stroke-linejoin="round" stroke-width="1"/></g><g id="id11_Graphic"><path d="M 139.5 138 L 145.5 138 C 151.29899 138 156 142.70101 156 148.5 L 156 148.5 C 156 154.29899 151.29899 159 145.5 159 L 139.5 159 C 133.70101 159 129 154.29899 129 148.5 L 129 148.5 C 129 142.70101 133.70101 138 139.5 138 Z" fill="white"/><path d="M 139.5 138 L 145.5 138 C 151.29899 138 156 142.70101 156 148.5 L 156 148.5 C 156 154.29899 151.29899 159 145.5 159 L 139.5 159 C 133.70101 159 129 154.29899 129 148.5 L 129 148.5 C 129 142.70101 133.70101 138 139.5 138 Z" stroke="black" stroke-linecap="round" stroke-linejoin="round" stroke-width="1"/></g><g id="id12_Graphic"><path d="M 40.5 26 L 46.5 26 C 52.29899 26 57 30.70101 57 36.5 L 57 36.5 C 57 42.29899 52.29899 47 46.5 47 L 40.5 47 C 34.70101 47 30 42.29899 30 36.5 L 30 36.5 C 30 30.70101 34.70101 26 40.5 26 Z" fill="white"/><path d="M 40.5 26 L 46.5 26 C 52.29899 26 57 30.70101 57 36.5 L 57 36.5 C 57 42.29899 52.29899 47 46.5 47 L 40.5 47 C 34.70101 47 30 42.29899 30 36.5 L 30 36.5 C 30 30.70101 34.70101 26 40.5 26 Z" stroke="black" stroke-linecap="round" stroke-linejoin="round" stroke-width="1"/></g><g id="id13_Graphic"><path d="M 134.5 65 L 140.5 65 C 146.29899 65 151 69.70101 151 75.5 L 151 75.5 C 151 81.29899 146.29899 86 140.5 86 L 134.5 86 C 128.70101 86 124 81.29899 124 75.5 L 124 75.5 C 124 69.70101 128.70101 65 134.5 65 Z" fill="white"/><path d="M 134.5 65 L 140.5 65 C 146.29899 65 151 69.70101 151 75.5 L 151 75.5 C 151 81.29899 146.29899 86 140.5 86 L 134.5 86 C 128.70101 86 124 81.29899 124 75.5 L 124 75.5 C 124 69.70101 128.70101 65 134.5 65 Z" stroke="black" stroke-linecap="round" stroke-linejoin="round" stroke-width="1"/></g><g id="id14_Graphic"><path d="M 93.5 44 L 99.5 44 C 105.29899 44 110 48.70101 110 54.5 L 110 54.5 C 110 60.29899 105.29899 65 99.5 65 L 93.5 65 C 87.70101 65 83 60.29899 83 54.5 L 83 54.5 C 83 48.70101 87.70101 44 93.5 44 Z" fill="white"/><path d="M 93.5 44 L 99.5 44 C 105.29899 44 110 48.70101 110 54.5 L 110 54.5 C 110 60.29899 105.29899 65 99.5 65 L 93.5 65 C 87.70101 65 83 60.29899 83 54.5 L 83 54.5 C 83 48.70101 87.70101 44 93.5 44 Z" stroke="black" stroke-linecap="round" stroke-linejoin="round" stroke-width="1"/></g><line x1="42.222785" y1="47.49666" x2="38.795702" y2="77.003435" stroke="black" stroke-linecap="round" stroke-linejoin="round" stroke-width="1"/><line x1="50.546444" y1="46.717344" x2="76.453556" y2="84.282656" stroke="black" stroke-linecap="round" stroke-linejoin="round" stroke-width="1"/><line x1="56.56588" y1="40.937469" x2="83.43412" y2="50.06253" stroke="black" stroke-linecap="round" stroke-linejoin="round" stroke-width="1"/><line x1="108.39516" y1="48.03524" x2="130.60484" y2="35.96476" stroke="black" stroke-linecap="round" stroke-linejoin="round" stroke-width="1"/><line x1="92.089804" y1="85.036657" x2="133.9102" y2="38.963343" stroke="black" stroke-linecap="round" stroke-linejoin="round" stroke-width="1"/><line x1="141.30467" y1="40.497072" x2="138.69533" y2="64.502928" stroke="black" stroke-linecap="round" stroke-linejoin="round" stroke-width="1"/><line x1="101.76104" y1="65.25082" x2="137.23896" y2="137.74918" stroke="black" stroke-linecap="round" stroke-linejoin="round" stroke-width="1"/><line x1="163.52383" y1="102.275455" x2="146.45732" y2="84.73671" stroke="black" stroke-linecap="round" stroke-linejoin="round" stroke-width="1"/><line x1="158.72593" y1="113.72596" x2="124.277946" y2="119.29292" stroke="black" stroke-linecap="round" stroke-linejoin="round" stroke-width="1"/><line x1="96.723487" y1="123.71408" x2="68.276513" y2="128.28592" stroke="black" stroke-linecap="round" stroke-linejoin="round" stroke-width="1"/><line x1="41.859735" y1="98.89934" x2="50.140265" y2="119.60066" stroke="black" stroke-linecap="round" stroke-linejoin="round" stroke-width="1"/><path d="M 62.44541 120.68508 L 63 120 L 75.593804 104.33454" stroke="black" stroke-linecap="round" stroke-linejoin="round" stroke-width="1"/><line x1="98.7963" y1="65.48943" x2="108.2037" y2="110.51057" stroke="black" stroke-linecap="round" stroke-linejoin="round" stroke-width="1"/><line x1="141.746655" y1="137.50117" x2="138.253345" y2="86.49883" stroke="black" stroke-linecap="round" stroke-linejoin="round" stroke-width="1"/><line x1="150.45438" y1="138.6896" x2="164.54562" y2="121.3104" stroke="black" stroke-linecap="round" stroke-linejoin="round" stroke-width="1"/><line x1="96.503707" y1="89.92462" x2="124.49629" y2="80.07538" stroke="black" stroke-linecap="round" stroke-linejoin="round" stroke-width="1"/><g id="id31_Graphic"><path d="M 372 21 L 378 21 C 383.799 21 388.5 25.70101 388.5 31.5 L 388.5 31.5 C 388.5 37.29899 383.799 42 378 42 L 372 42 C 366.201 42 361.5 37.29899 361.5 31.5 L 361.5 31.5 C 361.5 25.70101 366.201 21 372 21 Z" fill="white"/><path d="M 372 21 L 378 21 C 383.799 21 388.5 25.70101 388.5 31.5 L 388.5 31.5 C 388.5 37.29899 383.799 42 378 42 L 372 42 C 366.201 42 361.5 37.29899 361.5 31.5 L 361.5 31.5 C 361.5 25.70101 366.201 21 372 21 Z" stroke="black" stroke-linecap="round" stroke-linejoin="round" stroke-width="1"/></g><g id="id32_Graphic"><path d="M 299.5 134.5 L 305.5 134.5 C 311.29899 134.5 316 139.20101 316 145 L 316 145 C 316 150.79899 311.29899 155.5 305.5 155.5 L 299.5 155.5 C 293.70101 155.5 289 150.79899 289 145 L 289 145 C 289 139.20101 293.70101 134.5 299.5 134.5 Z" fill="white"/><path d="M 299.5 134.5 L 305.5 134.5 C 311.29899 134.5 316 139.20101 316 145 L 316 145 C 316 150.79899 311.29899 155.5 305.5 155.5 L 299.5 155.5 C 293.70101 155.5 289 150.79899 289 145 L 289 145 C 289 139.20101 293.70101 134.5 299.5 134.5 Z" stroke="black" stroke-linecap="round" stroke-linejoin="round" stroke-width="1"/></g><g id="id33_Graphic"><path d="M 365.5 106.5 L 371.5 106.5 C 377.299 106.5 382 111.20101 382 117 L 382 117 C 382 122.79899 377.299 127.5 371.5 127.5 L 365.5 127.5 C 359.701 127.5 355 122.79899 355 117 L 355 117 C 355 111.20101 359.701 106.5 365.5 106.5 Z" fill="white"/><path d="M 365.5 106.5 L 371.5 106.5 C 377.299 106.5 382 111.20101 382 117 L 382 117 C 382 122.79899 377.299 127.5 371.5 127.5 L 365.5 127.5 C 359.701 127.5 355 122.79899 355 117 L 355 117 C 355 111.20101 359.701 106.5 365.5 106.5 Z" stroke="black" stroke-linecap="round" stroke-linejoin="round" stroke-width="1"/></g><g id="id34_Graphic"><path d="M 341.5 140.5 L 347.5 140.5 C 353.299 140.5 358 145.20101 358 151 L 358 151 C 358 156.79899 353.299 161.5 347.5 161.5 L 341.5 161.5 C 335.70101 161.5 331 156.79899 331 151 L 331 151 C 331 145.20101 335.70101 140.5 341.5 140.5 Z" fill="white"/><path d="M 341.5 140.5 L 347.5 140.5 C 353.299 140.5 358 145.20101 358 151 L 358 151 C 358 156.79899 353.299 161.5 347.5 161.5 L 341.5 161.5 C 335.70101 161.5 331 156.79899 331 151 L 331 151 C 331 145.20101 335.70101 140.5 341.5 140.5 Z" stroke="black" stroke-linecap="round" stroke-linejoin="round" stroke-width="1"/></g><g id="id35_Graphic"><path d="M 299.5 86.5 L 305.5 86.5 C 311.29899 86.5 316 91.20101 316 97 L 316 97 C 316 102.79899 311.29899 107.5 305.5 107.5 L 299.5 107.5 C 293.70101 107.5 289 102.79899 289 97 L 289 97 C 289 91.20101 293.70101 86.5 299.5 86.5 Z" fill="white"/><path d="M 299.5 86.5 L 305.5 86.5 C 311.29899 86.5 316 91.20101 316 97 L 316 97 C 316 102.79899 311.29899 107.5 305.5 107.5 L 299.5 107.5 C 293.70101 107.5 289 102.79899 289 97 L 289 97 C 289 91.20101 293.70101 86.5 299.5 86.5 Z" stroke="black" stroke-linecap="round" stroke-linejoin="round" stroke-width="1"/></g><g id="id36_Graphic"><path d="M 341.5 72.5 L 347.5 72.5 C 353.299 72.5 358 77.20101 358 83 L 358 83 C 358 88.79899 353.299 93.5 347.5 93.5 L 341.5 93.5 C 335.70101 93.5 331 88.79899 331 83 L 331 83 C 331 77.20101 335.70101 72.5 341.5 72.5 Z" fill="white"/><path d="M 341.5 72.5 L 347.5 72.5 C 353.299 72.5 358 77.20101 358 83 L 358 83 C 358 88.79899 353.299 93.5 347.5 93.5 L 341.5 93.5 C 335.70101 93.5 331 88.79899 331 83 L 331 83 C 331 77.20101 335.70101 72.5 341.5 72.5 Z" stroke="black" stroke-linecap="round" stroke-linejoin="round" stroke-width="1"/></g><g id="id37_Graphic"><path d="M 473 100 L 479 100 C 484.799 100 489.5 104.70101 489.5 110.5 L 489.5 110.5 C 489.5 116.29899 484.799 121 479 121 L 473 121 C 467.201 121 462.5 116.29899 462.5 110.5 L 462.5 110.5 C 462.5 104.70101 467.201 100 473 100 Z" fill="white"/><path d="M 473 100 L 479 100 C 484.799 100 489.5 104.70101 489.5 110.5 L 489.5 110.5 C 489.5 116.29899 484.799 121 479 121 L 473 121 C 467.201 121 462.5 116.29899 462.5 110.5 L 462.5 110.5 C 462.5 104.70101 467.201 100 473 100 Z" stroke="black" stroke-linecap="round" stroke-linejoin="round" stroke-width="1"/></g><g id="id38_Graphic"><path d="M 429 119 L 435 119 C 440.799 119 445.5 123.70101 445.5 129.5 L 445.5 129.5 C 445.5 135.29899 440.799 140 435 140 L 429 140 C 423.201 140 418.5 135.29899 418.5 129.5 L 418.5 129.5 C 418.5 123.70101 423.201 119 429 119 Z" fill="white"/><path d="M 429 119 L 435 119 C 440.799 119 445.5 123.70101 445.5 129.5 L 445.5 129.5 C 445.5 135.29899 440.799 140 435 140 L 429 140 C 423.201 140 418.5 135.29899 418.5 129.5 L 418.5 129.5 C 418.5 123.70101 423.201 119 429 119 Z" stroke="black" stroke-linecap="round" stroke-linejoin="round" stroke-width="1"/></g><g id="id39_Graphic"><path d="M 468 147 L 474 147 C 479.799 147 484.5 151.70101 484.5 157.5 L 484.5 157.5 C 484.5 163.29899 479.799 168 474 168 L 468 168 C 462.201 168 457.5 163.29899 457.5 157.5 L 457.5 157.5 C 457.5 151.70101 462.201 147 468 147 Z" fill="white"/><path d="M 468 147 L 474 147 C 479.799 147 484.5 151.70101 484.5 157.5 L 484.5 157.5 C 484.5 163.29899 479.799 168 474 168 L 468 168 C 462.201 168 457.5 163.29899 457.5 157.5 L 457.5 157.5 C 457.5 151.70101 462.201 147 468 147 Z" stroke="black" stroke-linecap="round" stroke-linejoin="round" stroke-width="1"/></g><g id="id40_Graphic"><path d="M 514 133 L 520 133 C 525.799 133 530.5 137.70101 530.5 143.5 L 530.5 143.5 C 530.5 149.29899 525.799 154 520 154 L 514 154 C 508.201 154 503.5 149.29899 503.5 143.5 L 503.5 143.5 C 503.5 137.70101 508.201 133 514 133 Z" fill="white"/><path d="M 514 133 L 520 133 C 525.799 133 530.5 137.70101 530.5 143.5 L 530.5 143.5 C 530.5 149.29899 525.799 154 520 154 L 514 154 C 508.201 154 503.5 149.29899 503.5 143.5 L 503.5 143.5 C 503.5 137.70101 508.201 133 514 133 Z" stroke="black" stroke-linecap="round" stroke-linejoin="round" stroke-width="1"/></g><g id="id41_Graphic"><path d="M 452 65 L 458 65 C 463.799 65 468.5 69.70101 468.5 75.5 L 468.5 75.5 C 468.5 81.29899 463.799 86 458 86 L 452 86 C 446.201 86 441.5 81.29899 441.5 75.5 L 441.5 75.5 C 441.5 69.70101 446.201 65 452 65 Z" fill="white"/><path d="M 452 65 L 458 65 C 463.799 65 468.5 69.70101 468.5 75.5 L 468.5 75.5 C 468.5 81.29899 463.799 86 458 86 L 452 86 C 446.201 86 441.5 81.29899 441.5 75.5 L 441.5 75.5 C 441.5 69.70101 446.201 65 452 65 Z" stroke="black" stroke-linecap="round" stroke-linejoin="round" stroke-width="1"/></g><line x1="368.77846" y1="42.00523" x2="350.72154" y2="72.49477" stroke="black" stroke-linecap="round" stroke-linejoin="round" stroke-width="1"/><line x1="386.85457" y1="38.020013" x2="443.14543" y2="68.979987" stroke="black" stroke-linecap="round" stroke-linejoin="round" stroke-width="1"/><line x1="450.37303" y1="86.36331" x2="436.62697" y2="118.63669" stroke="black" stroke-linecap="round" stroke-linejoin="round" stroke-width="1"/><line x1="444.5668" y1="124.073425" x2="463.4332" y2="115.926575" stroke="black" stroke-linecap="round" stroke-linejoin="round" stroke-width="1"/><line x1="461.2904" y1="85.984" x2="469.7096" y2="100.016" stroke="black" stroke-linecap="round" stroke-linejoin="round" stroke-width="1"/><line x1="474.83009" y1="121.497194" x2="472.16991" y2="146.502806" stroke="black" stroke-linecap="round" stroke-linejoin="round" stroke-width="1"/><line x1="486.2575" y1="118.75605" x2="506.7425" y2="135.24395" stroke="black" stroke-linecap="round" stroke-linejoin="round" stroke-width="1"/><line x1="503.76304" y1="147.52864" x2="484.23696" y2="153.47136" stroke="black" stroke-linecap="round" stroke-linejoin="round" stroke-width="1"/><line x1="442.79592" y1="137.25092" x2="460.20408" y2="149.74908" stroke="black" stroke-linecap="round" stroke-linejoin="round" stroke-width="1"/><line x1="351.6756" y1="93.16543" x2="361.3244" y2="106.83457" stroke="black" stroke-linecap="round" stroke-linejoin="round" stroke-width="1"/><line x1="361.3244" y1="127.16543" x2="351.6756" y2="140.83457" stroke="black" stroke-linecap="round" stroke-linejoin="round" stroke-width="1"/><line x1="330.67722" y1="149.02532" x2="316.32278" y2="146.97468" stroke="black" stroke-linecap="round" stroke-linejoin="round" stroke-width="1"/><line x1="302.49998" y1="134" x2="302.49998" y2="108" stroke="black" stroke-linecap="round" stroke-linejoin="round" stroke-width="1"/><line x1="315.5973" y1="92.63423" x2="331.4027" y2="87.36577" stroke="black" stroke-linecap="round" stroke-linejoin="round" stroke-width="1"/><line x1="344.49998" y1="94" x2="344.49998" y2="140" stroke="black" stroke-linecap="round" stroke-linejoin="round" stroke-width="1"/><line x1="355.88984" y1="122.349765" x2="315.11016" y2="139.650235" stroke="black" stroke-linecap="round" stroke-linejoin="round" stroke-width="1"/><line x1="310.21962" y1="106.92523" x2="336.78038" y2="141.07477" stroke="black" stroke-linecap="round" stroke-linejoin="round" stroke-width="1"/><line x1="315.7431" y1="101.01306" x2="355.2569" y2="112.98694" stroke="black" stroke-linecap="round" stroke-linejoin="round" stroke-width="1"/><g id="id60_Graphic"><path d="M 210 88.500004 L 210 68.499996 L 230 68.499996 L 230 58.5 L 250 78.5 L 230 98.5 L 230 88.500004 Z" fill="url(#Obj_Gradient)"/><path d="M 210 88.500004 L 210 68.499996 L 230 68.499996 L 230 58.5 L 250 78.5 L 230 98.5 L 230 88.500004 Z" stroke="#191919" stroke-linecap="round" stroke-linejoin="round" stroke-width="1"/></g></g></g></svg>
