<?xml version="1.0"?>
<!DOCTYPE svg PUBLIC "-//W3C//DTD SVG 1.1//EN" "http://www.w3.org/Graphics/SVG/1.1/DTD/svg11.dtd">
<svg xmlns="http://www.w3.org/2000/svg" xmlns:xl="http://www.w3.org/1999/xlink" version="1.1" viewBox="13 14 529 173" width="529pt" height="173pt"><metadata xmlns:dc="http://purl.org/dc/elements/1.1/"><dc:date>2015-03-25 16:13Z</dc:date><!-- Produced by OmniGraffle Professional 5.4.4 --></metadata><defs><filter id="Shadow" filterUnits="userSpaceOnUse"><feGaussianBlur in="SourceAlpha" result="blur" stdDeviation="3.488"/><feOffset in="blur" result="offset" dx="0" dy="4"/><feFlood flood-color="black" flood-opacity=".75" result="flood"/><feComposite in="flood" in2="offset" operator="in"/></filter><filter id="Shadow_2" filterUnits="userSpaceOnUse"><feGaussianBlur in="SourceAlpha" result="blur" stdDeviation="3.488"/><feOffset in="blur" result="offset" dx="0" dy="2"/><feFlood flood-color="black" flood-opacity=".4" result="flood"/><feComposite in="flood" in2="offset" operator="in"/></filter><linearGradient x1="0" x2="1" id="Gradient" gradientUnits="userSpaceOnUse"><stop offset="0" stop-color="#666"/><stop offset=".45238096" stop-color="#8c8c8c"/><stop offset="1" stop-color="black"/></linearGradient><linearGradient id="Obj_Gradient" xl:href="#Gradient" gradientTransform="translate(230 71.5) rotate(90) scale(40)"/></defs><g stroke="none" stroke-opacity="1" stroke-dasharray="none" fill="none" fill-opacity="1"><title>Blank Page</title><g><title>Layer 1</title><g><use xl:href="#id4_Graphic" filter="url(#Shadow)"/><use xl:href="#id6_Graphic" filter="url(#Shadow)"/><use xl:href="#id7_Graphic" filter="url(#Shadow)"/><use xl:href="#id8_Graphic" filter="url(#Shadow)"/><use xl:href="#id9_Graphic" filter="url(#Shadow)"/><use xl:href="#id10_Graphic" filter="url(#Shadow)"/><use xl:href="#id11_Graphic" filter="url(#Shadow)"/><use xl:href="#id12_Graphic" filter="url(#Shadow)"/><use xl:href="#id13_Graphic" filter="url(#Shadow)"/><use xl:href="#id14_Graphic" filter="url(#Shadow)"/><use xl:href="#id31_Graphic" filter="url(#Shadow)"/><use xl:href="#id32_Graphic" filter="url(#Shadow)"/><use xl:href="#id33_Graphic" filter="url(#Shadow)"/><use xl:href="#id34_Graphic" filter="url(#Shadow)"/><use xl:href="#id35_Graphic" filter="url(#Shadow)"/><use xl:href="#id36_Graphic" filter="url(#Shadow)"/><use xl:href="#id37_Graphic" filter="url(#Shadow)"/><use xl:href="#id38_Graphic" filter="url(#Shadow)"/><use xl:href="#id39_Graphic" filter="url(#Shadow)"/><use xl:href="#id40_Graphic" filter="url(#Shadow)"/><use xl:href="#id41_Graphic" filter="url(#Shadow)"/><use xl:href="#id60_Graphic" filter="url(#Shadow_2)"/></g><g id="id4_Graphic"><path d="M 80.5 97 L 86.5 97 C 92.29899 97 97 101.70101 97 107.5 L 97 107.5 C 97 113.29899 92.29899 118 86.5 118 L 80.5 118 C 74.70101 118 70 113.29899 70 107.5 L 70 107.5 C 70 101.70101 74.70101 97 80.5 97 Z" fill="white"/><path d="M 80.5 97 L 86.5 97 C 92.29899 97 97 101.70101 97 107.5 L 97 107.5 C 97 113.29899 92.29899 118 86.5 118 L 80.5 118 C 74.70101 118 70 113.29899 70 107.5 L 70 107.5 C 70 101.70101 74.70101 97 80.5 97 Z" stroke="black" stroke-linecap="round" stroke-linejoin="round" stroke-width="1"/></g><g id="id6_Graphic"><path d="M 34.5 90.5 L 40.5 90.5 C 46.29899 90.5 51 95.20101 51 101 L 51 101 C 51 106.79899 46.29899 111.5 40.5 111.5 L 34.5 111.5 C 28.70101 111.5 24 106.79899 24 101 L 24 101 C 24 95.20101 28.70101 90.5 34.5 90.5 Z" fill="white"/><path d="M 34.5 90.5 L 40.5 90.5 C 46.29899 90.5 51 95.20101 51 101 L 51 101 C 51 106.79899 46.29899 111.5 40.5 111.5 L 34.5 111.5 C 28.70101 111.5 24 106.79899 24 101 L 24 101 C 24 95.20101 28.70101 90.5 34.5 90.5 Z" stroke="black" stroke-linecap="round" stroke-linejoin="round" stroke-width="1"/></g><g id="id7_Graphic"><path d="M 51.5 133 L 57.5 133 C 63.29899 133 68 137.70101 68 143.5 L 68 143.5 C 68 149.29899 63.29899 154 57.5 154 L 51.5 154 C 45.70101 154 41 149.29899 41 143.5 L 41 143.5 C 41 137.70101 45.70101 133 51.5 133 Z" fill="white"/><path d="M 51.5 133 L 57.5 133 C 63.29899 133 68 137.70101 68 143.5 L 68 143.5 C 68 149.29899 63.29899 154 57.5 154 L 51.5 154 C 45.70101 154 41 149.29899 41 143.5 L 41 143.5 C 41 137.70101 45.70101 133 51.5 133 Z" stroke="black" stroke-linecap="round" stroke-linejoin="round" stroke-width="1"/></g><g id="id8_Graphic"><path d="M 107.5 124 L 113.5 124 C 119.29899 124 124 128.70101 124 134.5 L 124 134.5 C 124 140.29899 119.29899 145 113.5 145 L 107.5 145 C 101.70101 145 97 140.29899 97 134.5 L 97 134.5 C 97 128.70101 101.70101 124 107.5 124 Z" fill="white"/><path d="M 107.5 124 L 113.5 124 C 119.29899 124 124 128.70101 124 134.5 L 124 134.5 C 124 140.29899 119.29899 145 113.5 145 L 107.5 145 C 101.70101 145 97 140.29899 97 134.5 L 97 134.5 C 97 128.70101 101.70101 124 107.5 124 Z" stroke="black" stroke-linecap="round" stroke-linejoin="round" stroke-width="1"/></g><g id="id9_Graphic"><path d="M 169.5 114 L 175.5 114 C 181.29899 114 186 118.70101 186 124.5 L 186 124.5 C 186 130.29899 181.29899 135 175.5 135 L 169.5 135 C 163.70101 135 159 130.29899 159 124.5 L 159 124.5 C 159 118.70101 163.70101 114 169.5 114 Z" fill="white"/><path d="M 169.5 114 L 175.5 114 C 181.29899 114 186 118.70101 186 124.5 L 186 124.5 C 186 130.29899 181.29899 135 175.5 135 L 169.5 135 C 163.70101 135 159 130.29899 159 124.5 L 159 124.5 C 159 118.70101 163.70101 114 169.5 114 Z" stroke="black" stroke-linecap="round" stroke-linejoin="round" stroke-width="1"/></g><g id="id10_Graphic"><path d="M 139.5 32 L 145.5 32 C 151.29899 32 156 36.70101 156 42.5 L 156 42.5 C 156 48.29899 151.29899 53 145.5 53 L 139.5 53 C 133.70101 53 129 48.29899 129 42.5 L 129 42.5 C 129 36.70101 133.70101 32 139.5 32 Z" fill="white"/><path d="M 139.5 32 L 145.5 32 C 151.29899 32 156 36.70101 156 42.5 L 156 42.5 C 156 48.29899 151.29899 53 145.5 53 L 139.5 53 C 133.70101 53 129 48.29899 129 42.5 L 129 42.5 C 129 36.70101 133.70101 32 139.5 32 Z" stroke="black" stroke-linecap="round" stroke-linejoin="round" stroke-width="1"/></g><g id="id11_Graphic"><path d="M 139.5 151 L 145.5 151 C 151.29899 151 156 155.70101 156 161.5 L 156 161.5 C 156 167.29899 151.29899 172 145.5 172 L 139.5 172 C 133.70101 172 129 167.29899 129 161.5 L 129 161.5 C 129 155.70101 133.70101 151 139.5 151 Z" fill="white"/><path d="M 139.5 151 L 145.5 151 C 151.29899 151 156 155.70101 156 161.5 L 156 161.5 C 156 167.29899 151.29899 172 145.5 172 L 139.5 172 C 133.70101 172 129 167.29899 129 161.5 L 129 161.5 C 129 155.70101 133.70101 151 139.5 151 Z" stroke="black" stroke-linecap="round" stroke-linejoin="round" stroke-width="1"/></g><g id="id12_Graphic"><path d="M 40.5 39 L 46.5 39 C 52.29899 39 57 43.70101 57 49.5 L 57 49.5 C 57 55.29899 52.29899 60 46.5 60 L 40.5 60 C 34.70101 60 30 55.29899 30 49.5 L 30 49.5 C 30 43.70101 34.70101 39 40.5 39 Z" fill="white"/><path d="M 40.5 39 L 46.5 39 C 52.29899 39 57 43.70101 57 49.5 L 57 49.5 C 57 55.29899 52.29899 60 46.5 60 L 40.5 60 C 34.70101 60 30 55.29899 30 49.5 L 30 49.5 C 30 43.70101 34.70101 39 40.5 39 Z" stroke="black" stroke-linecap="round" stroke-linejoin="round" stroke-width="1"/></g><g id="id13_Graphic"><path d="M 134.5 78 L 140.5 78 C 146.29899 78 151 82.70101 151 88.5 L 151 88.5 C 151 94.29899 146.29899 99 140.5 99 L 134.5 99 C 128.70101 99 124 94.29899 124 88.5 L 124 88.5 C 124 82.70101 128.70101 78 134.5 78 Z" fill="white"/><path d="M 134.5 78 L 140.5 78 C 146.29899 78 151 82.70101 151 88.5 L 151 88.5 C 151 94.29899 146.29899 99 140.5 99 L 134.5 99 C 128.70101 99 124 94.29899 124 88.5 L 124 88.5 C 124 82.70101 128.70101 78 134.5 78 Z" stroke="black" stroke-linecap="round" stroke-linejoin="round" stroke-width="1"/></g><g id="id14_Graphic"><path d="M 93.5 57 L 99.5 57 C 105.29899 57 110 61.70101 110 67.5 L 110 67.5 C 110 73.29899 105.29899 78 99.5 78 L 93.5 78 C 87.70101 78 83 73.29899 83 67.5 L 83 67.5 C 83 61.70101 87.70101 57 93.5 57 Z" fill="white"/><path d="M 93.5 57 L 99.5 57 C 105.29899 57 110 61.70101 110 67.5 L 110 67.5 C 110 73.29899 105.29899 78 99.5 78 L 93.5 78 C 87.70101 78 83 73.29899 83 67.5 L 83 67.5 C 83 61.70101 87.70101 57 93.5 57 Z" stroke="black" stroke-linecap="round" stroke-linejoin="round" stroke-width="1"/></g><line x1="42.218838" y1="60.49664" x2="38.781162" y2="90.00336" stroke="black" stroke-linecap="round" stroke-linejoin="round" stroke-width="1"/><line x1="50.546444" y1="59.717344" x2="76.453556" y2="97.282656" stroke="black" stroke-linecap="round" stroke-linejoin="round" stroke-width="1"/><line x1="56.56588" y1="53.93747" x2="83.43412" y2="63.06253" stroke="black" stroke-linecap="round" stroke-linejoin="round" stroke-width="1"/><line x1="108.39516" y1="61.03524" x2="130.60484" y2="48.96476" stroke="black" stroke-linecap="round" stroke-linejoin="round" stroke-width="1"/><line x1="92.089804" y1="98.036657" x2="133.9102" y2="51.963343" stroke="black" stroke-linecap="round" stroke-linejoin="round" stroke-width="1"/><line x1="141.30467" y1="53.497072" x2="138.69533" y2="77.50293" stroke="black" stroke-linecap="round" stroke-linejoin="round" stroke-width="1"/><line x1="101.76104" y1="78.25082" x2="137.23896" y2="150.74918" stroke="black" stroke-linecap="round" stroke-linejoin="round" stroke-width="1"/><line x1="163.52866" y1="115.27233" x2="146.47134" y2="97.727667" stroke="black" stroke-linecap="round" stroke-linejoin="round" stroke-width="1"/><line x1="158.72506" y1="126.721764" x2="124.27494" y2="132.278236" stroke="black" stroke-linecap="round" stroke-linejoin="round" stroke-width="1"/><line x1="96.723487" y1="136.71408" x2="68.276513" y2="141.28592" stroke="black" stroke-linecap="round" stroke-linejoin="round" stroke-width="1"/><line x1="41.859735" y1="111.89934" x2="50.140265" y2="132.60066" stroke="black" stroke-linecap="round" stroke-linejoin="round" stroke-width="1"/><path d="M 62.44541 133.68508 L 63 133 L 75.593804 117.33454" stroke="black" stroke-linecap="round" stroke-linejoin="round" stroke-width="1"/><line x1="98.7963" y1="78.48943" x2="108.2037" y2="123.51057" stroke="black" stroke-linecap="round" stroke-linejoin="round" stroke-width="1"/><line x1="141.746655" y1="150.50117" x2="138.253345" y2="99.49883" stroke="black" stroke-linecap="round" stroke-linejoin="round" stroke-width="1"/><line x1="150.45438" y1="151.6896" x2="164.54562" y2="134.3104" stroke="black" stroke-linecap="round" stroke-linejoin="round" stroke-width="1"/><line x1="96.503707" y1="102.92462" x2="124.49629" y2="93.07538" stroke="black" stroke-linecap="round" stroke-linejoin="round" stroke-width="1"/><g id="id31_Graphic"><path d="M 372 21 L 378 21 C 383.799 21 388.5 25.70101 388.5 31.5 L 388.5 31.5 C 388.5 37.29899 383.799 42 378 42 L 372 42 C 366.201 42 361.5 37.29899 361.5 31.5 L 361.5 31.5 C 361.5 25.70101 366.201 21 372 21 Z" fill="white"/><path d="M 372 21 L 378 21 C 383.799 21 388.5 25.70101 388.5 31.5 L 388.5 31.5 C 388.5 37.29899 383.799 42 378 42 L 372 42 C 366.201 42 361.5 37.29899 361.5 31.5 L 361.5 31.5 C 361.5 25.70101 366.201 21 372 21 Z" stroke="black" stroke-linecap="round" stroke-linejoin="round" stroke-width="1"/></g><g id="id32_Graphic"><path d="M 299.5 134.5 L 305.5 134.5 C 311.29899 134.5 316 139.20101 316 145 L 316 145 C 316 150.79899 311.29899 155.5 305.5 155.5 L 299.5 155.5 C 293.70101 155.5 289 150.79899 289 145 L 289 145 C 289 139.20101 293.70101 134.5 299.5 134.5 Z" fill="white"/><path d="M 299.5 134.5 L 305.5 134.5 C 311.29899 134.5 316 139.20101 316 145 L 316 145 C 316 150.79899 311.29899 155.5 305.5 155.5 L 299.5 155.5 C 293.70101 155.5 289 150.79899 289 145 L 289 145 C 289 139.20101 293.70101 134.5 299.5 134.5 Z" stroke="black" stroke-linecap="round" stroke-linejoin="round" stroke-width="1"/></g><g id="id33_Graphic"><path d="M 365.5 106.5 L 371.5 106.5 C 377.299 106.5 382 111.20101 382 117 L 382 117 C 382 122.79899 377.299 127.5 371.5 127.5 L 365.5 127.5 C 359.701 127.5 355 122.79899 355 117 L 355 117 C 355 111.20101 359.701 106.5 365.5 106.5 Z" fill="white"/><path d="M 365.5 106.5 L 371.5 106.5 C 377.299 106.5 382 111.20101 382 117 L 382 117 C 382 122.79899 377.299 127.5 371.5 127.5 L 365.5 127.5 C 359.701 127.5 355 122.79899 355 117 L 355 117 C 355 111.20101 359.701 106.5 365.5 106.5 Z" stroke="black" stroke-linecap="round" stroke-linejoin="round" stroke-width="1"/></g><g id="id34_Graphic"><path d="M 341.5 140.5 L 347.5 140.5 C 353.299 140.5 358 145.20101 358 151 L 358 151 C 358 156.79899 353.299 161.5 347.5 161.5 L 341.5 161.5 C 335.70101 161.5 331 156.79899 331 151 L 331 151 C 331 145.20101 335.70101 140.5 341.5 140.5 Z" fill="white"/><path d="M 341.5 140.5 L 347.5 140.5 C 353.299 140.5 358 145.20101 358 151 L 358 151 C 358 156.79899 353.299 161.5 347.5 161.5 L 341.5 161.5 C 335.70101 161.5 331 156.79899 331 151 L 331 151 C 331 145.20101 335.70101 140.5 341.5 140.5 Z" stroke="black" stroke-linecap="round" stroke-linejoin="round" stroke-width="1"/></g><g id="id35_Graphic"><path d="M 299.5 86.5 L 305.5 86.5 C 311.29899 86.5 316 91.20101 316 97 L 316 97 C 316 102.79899 311.29899 107.5 305.5 107.5 L 299.5 107.5 C 293.70101 107.5 289 102.79899 289 97 L 289 97 C 289 91.20101 293.70101 86.5 299.5 86.5 Z" fill="white"/><path d="M 299.5 86.5 L 305.5 86.5 C 311.29899 86.5 316 91.20101 316 97 L 316 97 C 316 102.79899 311.29899 107.5 305.5 107.5 L 299.5 107.5 C 293.70101 107.5 289 102.79899 289 97 L 289 97 C 289 91.20101 293.70101 86.5 299.5 86.5 Z" stroke="black" stroke-linecap="round" stroke-linejoin="round" stroke-width="1"/></g><g id="id36_Graphic"><path d="M 341.5 72.5 L 347.5 72.5 C 353.299 72.5 358 77.20101 358 83 L 358 83 C 358 88.79899 353.299 93.5 347.5 93.5 L 341.5 93.5 C 335.70101 93.5 331 88.79899 331 83 L 331 83 C 331 77.20101 335.70101 72.5 341.5 72.5 Z" fill="white"/><path d="M 341.5 72.5 L 347.5 72.5 C 353.299 72.5 358 77.20101 358 83 L 358 83 C 358 88.79899 353.299 93.5 347.5 93.5 L 341.5 93.5 C 335.70101 93.5 331 88.79899 331 83 L 331 83 C 331 77.20101 335.70101 72.5 341.5 72.5 Z" stroke="black" stroke-linecap="round" stroke-linejoin="round" stroke-width="1"/></g><g id="id37_Graphic"><path d="M 473 100 L 479 100 C 484.799 100 489.5 104.70101 489.5 110.5 L 489.5 110.5 C 489.5 116.29899 484.799 121 479 121 L 473 121 C 467.201 121 462.5 116.29899 462.5 110.5 L 462.5 110.5 C 462.5 104.70101 467.201 100 473 100 Z" fill="white"/><path d="M 473 100 L 479 100 C 484.799 100 489.5 104.70101 489.5 110.5 L 489.5 110.5 C 489.5 116.29899 484.799 121 479 121 L 473 121 C 467.201 121 462.5 116.29899 462.5 110.5 L 462.5 110.5 C 462.5 104.70101 467.201 100 473 100 Z" stroke="black" stroke-linecap="round" stroke-linejoin="round" stroke-width="1"/></g><g id="id38_Graphic"><path d="M 429 119 L 435 119 C 440.799 119 445.5 123.70101 445.5 129.5 L 445.5 129.5 C 445.5 135.29899 440.799 140 435 140 L 429 140 C 423.201 140 418.5 135.29899 418.5 129.5 L 418.5 129.5 C 418.5 123.70101 423.201 119 429 119 Z" fill="white"/><path d="M 429 119 L 435 119 C 440.799 119 445.5 123.70101 445.5 129.5 L 445.5 129.5 C 445.5 135.29899 440.799 140 435 140 L 429 140 C 423.201 140 418.5 135.29899 418.5 129.5 L 418.5 129.5 C 418.5 123.70101 423.201 119 429 119 Z" stroke="black" stroke-linecap="round" stroke-linejoin="round" stroke-width="1"/></g><g id="id39_Graphic"><path d="M 468 147 L 474 147 C 479.799 147 484.5 151.70101 484.5 157.5 L 484.5 157.5 C 484.5 163.29899 479.799 168 474 168 L 468 168 C 462.201 168 457.5 163.29899 457.5 157.5 L 457.5 157.5 C 457.5 151.70101 462.201 147 468 147 Z" fill="white"/><path d="M 468 147 L 474 147 C 479.799 147 484.5 151.70101 484.5 157.5 L 484.5 157.5 C 484.5 163.29899 479.799 168 474 168 L 468 168 C 462.201 168 457.5 163.29899 457.5 157.5 L 457.5 157.5 C 457.5 151.70101 462.201 147 468 147 Z" stroke="black" stroke-linecap="round" stroke-linejoin="round" stroke-width="1"/></g><g id="id40_Graphic"><path d="M 514 133 L 520 133 C 525.799 133 530.5 137.70101 530.5 143.5 L 530.5 143.5 C 530.5 149.29899 525.799 154 520 154 L 514 154 C 508.201 154 503.5 149.29899 503.5 143.5 L 503.5 143.5 C 503.5 137.70101 508.201 133 514 133 Z" fill="white"/><path d="M 514 133 L 520 133 C 525.799 133 530.5 137.70101 530.5 143.5 L 530.5 143.5 C 530.5 149.29899 525.799 154 520 154 L 514 154 C 508.201 154 503.5 149.29899 503.5 143.5 L 503.5 143.5 C 503.5 137.70101 508.201 133 514 133 Z" stroke="black" stroke-linecap="round" stroke-linejoin="round" stroke-width="1"/></g><g id="id41_Graphic"><path d="M 452 65 L 458 65 C 463.799 65 468.5 69.70101 468.5 75.5 L 468.5 75.5 C 468.5 81.29899 463.799 86 458 86 L 452 86 C 446.201 86 441.5 81.29899 441.5 75.5 L 441.5 75.5 C 441.5 69.70101 446.201 65 452 65 Z" fill="white"/><path d="M 452 65 L 458 65 C 463.799 65 468.5 69.70101 468.5 75.5 L 468.5 75.5 C 468.5 81.29899 463.799 86 458 86 L 452 86 C 446.201 86 441.5 81.29899 441.5 75.5 L 441.5 75.5 C 441.5 69.70101 446.201 65 452 65 Z" stroke="black" stroke-linecap="round" stroke-linejoin="round" stroke-width="1"/></g><line x1="368.77846" y1="42.00523" x2="350.72154" y2="72.49477" stroke="black" stroke-linecap="round" stroke-linejoin="round" stroke-width="1"/><line x1="386.84095" y1="38.038394" x2="443.06795" y2="69.0861" stroke="black" stroke-linecap="round" stroke-linejoin="round" stroke-width="1"/><line x1="450.3832" y1="86.3648" x2="436.66726" y2="118.6427" stroke="black" stroke-linecap="round" stroke-linejoin="round" stroke-width="1"/><line x1="444.68438" y1="124.28519" x2="463.7493" y2="116.447205" stroke="black" stroke-linecap="round" stroke-linejoin="round" stroke-width="1"/><line x1="461.17146" y1="86.02036" x2="469.4343" y2="100.105886" stroke="black" stroke-linecap="round" stroke-linejoin="round" stroke-width="1"/><line x1="474.8423" y1="121.49725" x2="472.20988" y2="146.503" stroke="black" stroke-linecap="round" stroke-linejoin="round" stroke-width="1"/><line x1="486.17365" y1="118.828876" x2="506.49635" y2="135.4665" stroke="black" stroke-linecap="round" stroke-linejoin="round" stroke-width="1"/><line x1="503.80113" y1="147.623805" x2="484.32727" y2="153.70815" stroke="black" stroke-linecap="round" stroke-linejoin="round" stroke-width="1"/><line x1="442.67916" y1="137.366314" x2="459.90835" y2="150.05741" stroke="black" stroke-linecap="round" stroke-linejoin="round" stroke-width="1"/><line x1="351.6756" y1="93.16543" x2="361.3244" y2="106.83457" stroke="black" stroke-linecap="round" stroke-linejoin="round" stroke-width="1"/><line x1="361.3244" y1="127.16543" x2="351.6756" y2="140.83457" stroke="black" stroke-linecap="round" stroke-linejoin="round" stroke-width="1"/><line x1="330.67722" y1="149.02532" x2="316.32278" y2="146.97468" stroke="black" stroke-linecap="round" stroke-linejoin="round" stroke-width="1"/><line x1="302.49998" y1="134" x2="302.49998" y2="108" stroke="black" stroke-linecap="round" stroke-linejoin="round" stroke-width="1"/><line x1="315.5973" y1="92.63423" x2="331.4027" y2="87.36577" stroke="black" stroke-linecap="round" stroke-linejoin="round" stroke-width="1"/><line x1="344.49998" y1="94" x2="344.49998" y2="140" stroke="black" stroke-linecap="round" stroke-linejoin="round" stroke-width="1"/><line x1="355.88984" y1="122.349765" x2="315.11016" y2="139.650235" stroke="black" stroke-linecap="round" stroke-linejoin="round" stroke-width="1"/><line x1="310.21962" y1="106.92523" x2="336.78038" y2="141.07477" stroke="black" stroke-linecap="round" stroke-linejoin="round" stroke-width="1"/><line x1="315.7431" y1="101.01306" x2="355.2569" y2="112.98694" stroke="black" stroke-linecap="round" stroke-linejoin="round" stroke-width="1"/><g id="id60_Graphic"><path d="M 210 101.500004 L 210 81.499996 L 230 81.499996 L 230 71.5 L 250 91.5 L 230 111.5 L 230 101.500004 Z" fill="url(#Obj_Gradient)"/><path d="M 210 101.500004 L 210 81.499996 L 230 81.499996 L 230 71.5 L 250 91.5 L 230 111.5 L 230 101.500004 Z" stroke="#191919" stroke-linecap="round" stroke-linejoin="round" stroke-width="1"/></g></g></g></svg>
